<svg width="294" height="52" viewBox="0 0 294 52" fill="none" xmlns="http://www.w3.org/2000/svg">
<path d="M9.1195 43.824L15.4555 47.984V49.008L9.1195 44.848V43.824ZM9.1195 41.52L15.4555 45.744V46.704L9.1195 42.544V41.52ZM9.1195 39.216L15.4555 43.44V44.464L9.1195 40.24V39.216ZM9.1195 36.912L15.4555 41.136V42.16L9.1195 37.936V36.912ZM9.1195 34.608L15.4555 38.832V39.856L9.1195 35.632V34.608ZM9.1195 32.304L15.4555 36.528V37.552L9.1195 33.328V32.304ZM9.1195 30L15.4555 34.224V35.248L9.1195 31.024V30ZM9.1195 27.696L15.4555 31.92V32.944L9.1195 28.72V27.696ZM9.1195 25.392L15.4555 29.616V30.64L9.1195 26.416V25.392ZM9.1195 23.088L15.4555 27.312V28.336L9.1195 24.112V23.088ZM45.7915 7.024L39.4555 2.864V1.84L43.8075 4.656L45.7915 6V7.024ZM39.4555 13.168L45.7915 17.328V18.352L39.4555 14.192V13.168ZM39.4555 40.816L45.7915 44.976V46L39.4555 41.84V40.816ZM39.4555 38.512L45.7915 42.672V43.696L39.4555 39.536V38.512ZM39.4555 36.208L45.7915 40.368V41.392L39.4555 37.232V36.208ZM39.4555 8.56L45.7915 12.72V13.744L39.4555 9.584V8.56ZM39.4555 33.904L45.7915 38.064V39.088L39.4555 34.928V33.904ZM39.4555 29.296L45.7915 33.456V34.48L39.4555 30.32V29.296ZM39.4555 10.864L45.7915 15.024V16.048L39.4555 11.888V10.864ZM39.4555 3.952L45.7915 8.112V9.136L39.4555 4.976V3.952ZM39.4555 31.6L45.7915 35.76V36.784L39.4555 32.624V31.6ZM39.4555 15.472L45.7915 19.632V20.656L39.4555 16.496V15.472ZM39.4555 17.776L45.7915 21.936V22.96L39.4555 18.8V17.776ZM39.4555 45.424L45.7915 49.584V50.544L39.4555 46.384V45.424ZM39.4555 22.384L45.7915 26.544V27.568L39.4555 23.408V22.384ZM39.4555 20.08L45.7915 24.24V25.264L39.4555 21.104V20.08ZM39.4555 6.256L45.7915 10.416V11.44L39.4555 7.28V6.256ZM39.4555 43.12L45.7915 47.28V48.24L39.4555 44.144V43.12ZM39.4555 26.992L45.7915 31.152V32.176L39.4555 28.016V26.992ZM39.4555 24.688L45.7915 28.848V29.872L39.4555 25.712V24.688ZM14.8155 50.928L9.1195 47.152V46.128L15.4555 50.288V50.928H14.8155ZM7.1995 47.152L12.8955 50.928H11.3595L5.5995 47.152H7.1995ZM3.6795 47.152L9.4395 50.928H7.8395L2.1435 47.152H3.6795ZM37.9195 47.472H39.0715L44.8315 51.248H43.6155L37.9195 47.472ZM9.1195 20.912L11.7435 23.536L9.1195 21.808V20.912ZM0.0315008 0.751999H2.5275L30.3675 29.744V1.008H38.3035V46.32H36.1915L7.9675 18.096V46H0.0315008V0.751999ZM65.993 44.848L72.329 49.008V50.032L65.993 45.872V44.848ZM65.993 42.544L72.329 46.704V47.728L65.993 43.568V42.544ZM65.993 40.24L72.329 44.4V45.424L65.993 41.264V40.24ZM65.993 37.936L72.329 42.096V43.12L65.993 38.96V37.936ZM65.993 10.288L72.329 14.448V15.472L65.993 11.312V10.288ZM65.993 35.632L72.329 39.792V40.816L65.993 36.656V35.632ZM65.993 33.328L72.329 37.488V38.512L65.993 34.352V33.328ZM65.993 31.024L72.329 35.184V36.208L65.993 32.048V31.024ZM65.993 14.896L72.329 19.056V20.08L65.993 15.92V14.896ZM65.993 12.592L72.329 16.752V17.776L65.993 13.616V12.592ZM84.937 22.768L91.273 26.992V28.016L84.937 23.792V22.768ZM87.369 3.632L93.705 7.856V8.88L87.369 4.656V3.632ZM84.937 27.376L91.273 31.6V32.624L84.937 28.4V27.376ZM84.937 25.072L91.273 29.296V30.32L84.937 26.096V25.072ZM87.369 5.936L93.705 10.16V11.184L87.369 6.96V5.936ZM93.385 13.232L87.369 9.264V8.24L93.705 12.464V13.232H93.385ZM72.329 33.904L65.993 29.744V29.616H67.337L73.097 33.392H72.329V33.904ZM68.233 9.456L73.993 13.232H72.393L66.633 9.456H68.233ZM62.537 47.152L68.233 50.928H66.953L61.257 47.152H62.537ZM81.353 29.616L87.113 33.392H85.513L79.753 29.616H81.353ZM70.857 29.616L76.617 33.392H75.017L69.257 29.616H70.857ZM84.873 29.616L90.569 33.392H88.969L83.273 29.616H84.873ZM65.993 47.152V47.088L71.753 50.928H70.153L64.457 47.152H65.993ZM71.753 9.456L77.449 13.232H75.913L70.153 9.456H71.753ZM77.833 29.616L83.593 33.392H81.993L76.297 29.616H77.833ZM74.377 29.616L80.073 33.392H78.537L72.777 29.616H74.377ZM82.185 9.456L87.945 13.232H86.345L80.649 9.456H82.185ZM85.705 9.456L91.465 13.232H89.865L84.169 9.456H85.705ZM78.729 9.456L84.425 13.232H82.889L77.129 9.456H78.729ZM75.209 9.456L80.969 13.232H79.369L73.673 9.456H75.209ZM93.705 6.768L87.369 2.544V1.776L93.705 6V6.768ZM65.993 18.224V17.2L70.665 20.272H69.065L65.993 18.224ZM58.697 47.152H59.721L65.481 50.928H64.393L58.697 47.152ZM65.993 19.504L67.209 20.272H65.993V19.504ZM56.969 1.008H86.217V8.304H64.841V21.424H83.785V28.464H64.841V46H56.969V1.008ZM119.715 17.072L126.051 21.232V22.32L119.715 18.096V17.072ZM134.499 6.064L140.835 10.288V11.312L134.499 7.152V6.064ZM134.499 3.76L140.835 7.984V9.008L134.499 4.848V3.76ZM140.259 13.232L134.499 9.456V8.368L140.835 12.592V13.232H140.259ZM119.715 37.808L126.051 42.032V43.056L119.715 38.832V37.808ZM119.715 30.896L126.051 35.12V36.144L119.715 31.92V30.896ZM119.715 26.288L126.051 30.512V31.536L119.715 27.312V26.288ZM119.715 33.2L126.051 37.424V38.448L119.715 34.224V33.2ZM119.715 21.68L126.051 25.904V26.928L119.715 22.704V21.68ZM119.715 14.768L126.051 18.992V20.016L119.715 15.792V14.768ZM119.715 23.984L126.051 28.208V29.232L119.715 25.008V23.984ZM119.715 10.16L126.051 14.384V15.408L119.715 11.184V10.16ZM119.715 12.464L126.051 16.688V17.712L119.715 13.488V12.464ZM119.715 28.592L126.051 32.816V33.84L119.715 29.616V28.592ZM119.715 44.72L126.051 48.88V49.904L119.715 45.744V44.72ZM119.715 42.416L126.051 46.576V47.6L119.715 43.44V42.416ZM119.715 19.376L126.051 23.6V24.624L119.715 20.4V19.376ZM119.715 40.112L126.051 44.336V45.36L119.715 41.136V40.112ZM119.715 35.504L126.051 39.728V40.752L119.715 36.528V35.504ZM119.715 47.152V47.024L125.603 50.928H124.067L118.307 47.152H119.715ZM132.643 9.456L138.339 13.232H136.803L131.043 9.456H132.643ZM129.123 9.456L134.883 13.232H133.283L127.587 9.456H129.123ZM122.147 9.456L127.843 13.232H126.307L120.547 9.456H122.147ZM125.603 9.456L131.363 13.232H129.763L124.067 9.456H125.603ZM101.155 9.456L106.915 13.232H105.635L99.939 9.456H101.155ZM116.515 47.152L122.275 50.928H120.803L115.107 47.152H116.515ZM140.835 6.896L134.499 2.736V1.776L140.835 6V6.896ZM108.835 13.232L103.075 9.456H104.675L109.411 12.592V13.232H108.835ZM112.291 47.152H113.635L119.331 50.928H117.987L112.291 47.152ZM108.195 9.456L109.411 10.288V11.312L106.595 9.456H108.195ZM97.251 9.456H98.403L104.099 13.232H102.947L97.251 9.456ZM95.523 1.008H133.347V8.304H118.563V46H110.563V8.304H95.523V1.008ZM162.536 13.04L168.872 17.2V18.224L162.536 14.064V13.04ZM162.536 6.128L168.872 10.288V11.312L162.536 7.152V6.128ZM162.536 38.384L168.872 42.544V43.568L162.536 39.408V38.384ZM162.536 36.08L168.872 40.24V41.264L162.536 37.104V36.08ZM162.536 3.824L168.872 7.984V9.008L162.536 4.848V3.824ZM162.536 10.736L168.872 14.896V15.92L162.536 11.76V10.736ZM162.536 15.344L168.872 19.504V20.528L162.536 16.368V15.344ZM162.536 19.952L168.872 24.112V25.136L162.536 20.976V19.952ZM162.536 29.168L168.872 33.328V34.352L162.536 30.192V29.168ZM162.536 8.432L168.872 12.592V13.616L162.536 9.456V8.432ZM162.536 26.864L168.872 31.024V32.048L162.536 27.888V26.864ZM162.536 17.648L168.872 21.808V22.832L162.536 18.672V17.648ZM162.536 42.992L168.872 47.152V48.176L162.536 44.016V42.992ZM162.536 22.256L168.872 26.416V27.44L162.536 23.28V22.256ZM162.536 33.776L168.872 37.936V38.96L162.536 34.8V33.776ZM162.536 40.688L168.872 44.848V45.872L162.536 41.712V40.688ZM162.536 31.472L168.872 35.632V36.656L162.536 32.496V31.472ZM162.536 45.296L168.872 49.456V50.48L162.536 46.32V45.296ZM162.536 24.56L168.872 28.72V29.744L162.536 25.584V24.56ZM168.872 6.896L162.536 2.736V1.776L168.872 6V6.896ZM161.832 47.152L167.592 50.928H166.056L160.296 47.152H161.832ZM158.376 47.152L164.072 50.928H162.536L156.84 47.152H158.376ZM147.496 14.64L152.296 17.84V18.8L146.472 15.024L147.496 14.64ZM149.672 13.808L152.296 15.472V16.496L148.712 14.192L149.672 13.808ZM151.912 12.976L152.296 13.232V14.256L150.952 13.36L151.912 12.976ZM153.448 46V11.056L143.976 14.704L141.288 7.984L159.464 1.008H161.384V46H153.448ZM195.582 20.016L188.99 15.664C189.118 15.4933 189.267 15.2373 189.438 14.896L196.03 19.248L195.582 20.016ZM230.206 39.472C230.035 39.8133 229.886 40.0693 229.758 40.24L223.23 35.888L223.614 35.12L230.206 39.472ZM194.686 21.744L188.158 17.392L188.542 16.624L195.07 20.912L194.686 21.744ZM230.654 38.512L224.126 34.16L224.446 33.392L231.038 37.68L230.654 38.512ZM224.766 46.128L218.238 41.84L218.942 41.264L225.47 45.552L224.766 46.128ZM190.078 14.064C190.163 13.936 190.249 13.8293 190.334 13.744C190.419 13.616 190.505 13.488 190.59 13.36L197.182 17.712L196.606 18.352L190.078 14.064ZM191.358 12.592C191.443 12.5067 191.529 12.4 191.614 12.272C191.742 12.144 191.87 12.0373 191.998 11.952L198.526 16.304L197.886 16.88L191.358 12.592ZM229.246 41.136C229.161 41.264 229.075 41.392 228.99 41.52C228.905 41.648 228.819 41.7547 228.734 41.84L222.142 37.488C222.227 37.4027 222.313 37.296 222.398 37.168C222.483 37.04 222.569 36.912 222.654 36.784L229.246 41.136ZM201.086 14.448L194.686 10.16L195.582 9.712L201.982 13.936L201.086 14.448ZM221.374 48.496L214.91 44.272L215.742 43.76L222.206 47.984L221.374 48.496ZM232.446 32.752L225.982 28.528L226.174 27.568L232.638 31.856L232.446 32.752ZM231.678 35.888C231.635 36.016 231.593 36.144 231.55 36.272C231.507 36.4 231.465 36.5493 231.422 36.72L224.894 32.368C224.937 32.24 224.979 32.112 225.022 31.984C225.065 31.856 225.107 31.7067 225.15 31.536L231.678 35.888ZM187.006 22.512L193.406 26.736C193.406 26.9067 193.406 27.0773 193.406 27.248C193.406 27.376 193.385 27.5467 193.342 27.76L187.006 23.536V22.512ZM194.046 23.6L187.518 19.312L187.774 18.416L194.302 22.768L194.046 23.6ZM187.134 25.968C187.091 25.7547 187.07 25.5627 187.07 25.392C187.07 25.2213 187.07 25.0293 187.07 24.816L193.342 28.976V30.064L187.134 25.968ZM199.422 15.6L192.894 11.312L193.598 10.736L200.126 15.024L199.422 15.6ZM193.598 25.584L187.134 21.36L187.326 20.4L193.79 24.688L193.598 25.584ZM227.582 43.376L220.99 39.024L221.502 38.384L228.094 42.736L227.582 43.376ZM232.766 27.376C232.809 27.5467 232.83 27.7173 232.83 27.888C232.83 28.0587 232.83 28.2293 232.83 28.4L226.43 24.24C226.43 24.112 226.43 23.984 226.43 23.856C226.473 23.728 226.494 23.6 226.494 23.472V23.216L232.766 27.376ZM231.998 34.8L225.47 30.512C225.555 30.256 225.641 29.9573 225.726 29.616L232.19 33.904L231.998 34.8ZM204.158 13.104C203.945 13.1467 203.753 13.1893 203.582 13.232C203.454 13.2747 203.305 13.3387 203.134 13.424L196.798 9.264C196.969 9.17867 197.139 9.136 197.31 9.136C197.481 9.09333 197.673 9.02933 197.886 8.944L204.158 13.104ZM223.87 46.832C223.657 47.0453 223.422 47.216 223.166 47.344L216.702 43.12L217.406 42.544L223.87 46.832ZM217.214 50.352L210.878 46.192L211.902 45.808L218.238 49.968L217.214 50.352ZM232.766 30.64L226.302 26.416C226.302 26.2453 226.302 26.096 226.302 25.968C226.345 25.7973 226.366 25.6267 226.366 25.456L232.766 29.68V30.64ZM220.286 49.072C220.115 49.2 219.817 49.3493 219.39 49.52L212.99 45.296L213.886 44.848L220.286 49.072ZM226.238 44.784L219.71 40.496L220.286 39.856L226.814 44.208L226.238 44.784ZM211.966 51.504L205.95 47.536L207.102 47.28L213.31 51.312L211.966 51.504ZM215.87 50.736C215.699 50.8213 215.529 50.864 215.358 50.864C215.187 50.9067 214.995 50.9707 214.782 51.056L208.574 46.96C208.958 46.7893 209.299 46.6827 209.598 46.64L215.87 50.736ZM232.702 26.032L226.43 21.872C226.43 21.7013 226.409 21.5307 226.366 21.36C226.366 21.1893 226.366 21.0187 226.366 20.848L232.51 24.88L232.702 26.032ZM206.782 12.528C206.569 12.5707 206.355 12.592 206.142 12.592C205.971 12.592 205.779 12.6347 205.566 12.72L199.422 8.688C199.635 8.64533 199.849 8.624 200.062 8.624C200.318 8.58133 200.574 8.56 200.83 8.56L206.782 12.528ZM187.39 27.376L193.47 31.408L193.726 32.56L187.774 28.656L187.39 27.376ZM231.998 22.256C232.041 22.4693 232.083 22.6613 232.126 22.832C232.169 23.0027 232.233 23.1947 232.318 23.408L226.174 19.376L225.982 18.288L231.998 22.256ZM230.974 19.248C231.059 19.4613 231.145 19.696 231.23 19.952C231.315 20.1653 231.401 20.4 231.486 20.656L225.598 16.752L225.278 15.472L230.974 19.248ZM208.766 51.696L202.942 47.856L204.35 47.728L210.238 51.632C210.025 51.6747 209.811 51.696 209.598 51.696C209.385 51.696 209.171 51.696 208.958 51.696H208.766ZM189.374 32.048C189.033 31.4507 188.734 30.896 188.478 30.384L194.11 34.096C194.195 34.3093 194.259 34.544 194.302 34.8C194.387 35.0133 194.473 35.2267 194.558 35.44L189.374 32.048ZM204.798 51.376L199.486 47.856C199.742 47.8987 199.998 47.92 200.254 47.92C200.553 47.92 200.83 47.92 201.086 47.92L206.718 51.568L204.798 51.376ZM208.446 12.336L202.814 8.624C203.582 8.70933 204.286 8.83733 204.926 9.008L210.11 12.4C209.897 12.3573 209.705 12.336 209.534 12.336C209.363 12.336 209.193 12.336 209.022 12.336H208.446ZM229.054 15.664C229.267 15.92 229.438 16.1973 229.566 16.496C229.737 16.752 229.907 17.0507 230.078 17.392L224.638 13.808L223.998 12.336L229.054 15.664ZM201.918 50.736C201.278 50.5653 200.659 50.3733 200.062 50.16C199.507 49.9467 198.931 49.712 198.334 49.456L195.006 47.216C195.731 47.4293 196.457 47.5573 197.182 47.6L201.918 50.736ZM222.974 9.584C224.638 10.6933 226.089 11.9733 227.326 13.424L223.038 10.608C222.867 10.3093 222.675 10.032 222.462 9.776C222.291 9.47733 222.099 9.17867 221.886 8.88L222.974 9.584ZM195.518 37.424C194.793 37.0827 194.089 36.6987 193.406 36.272C192.766 35.8027 192.147 35.2907 191.55 34.736L195.39 37.296L195.518 37.424ZM177.278 23.472C177.278 20.2293 177.897 17.2 179.134 14.384C180.371 11.5253 182.057 9.05066 184.19 6.96C186.366 4.86933 188.905 3.22666 191.806 2.032C194.75 0.837331 197.907 0.239998 201.278 0.239998C204.777 0.239998 207.998 0.815998 210.942 1.968C213.886 3.12 216.425 4.74133 218.558 6.832C220.691 8.88 222.355 11.3333 223.55 14.192C224.745 17.008 225.342 20.1013 225.342 23.472C225.342 26.8 224.723 29.8933 223.486 32.752C222.291 35.568 220.606 38.0213 218.43 40.112C216.297 42.16 213.758 43.7813 210.814 44.976C207.913 46.1707 204.734 46.768 201.278 46.768C197.822 46.768 194.622 46.192 191.678 45.04C188.777 43.8453 186.259 42.2027 184.126 40.112C181.993 38.0213 180.307 35.568 179.07 32.752C177.875 29.8933 177.278 26.8 177.278 23.472ZM185.854 23.6C185.854 25.8613 186.238 27.9733 187.006 29.936C187.817 31.8987 188.926 33.6267 190.334 35.12C191.742 36.5707 193.385 37.7227 195.262 38.576C197.139 39.3867 199.166 39.792 201.342 39.792C203.518 39.792 205.545 39.3867 207.422 38.576C209.299 37.7227 210.942 36.5707 212.35 35.12C213.758 33.6693 214.846 31.9627 215.614 30C216.425 28.0373 216.83 25.904 216.83 23.6C216.83 21.296 216.446 19.1627 215.678 17.2C214.91 15.1947 213.843 13.488 212.478 12.08C211.113 10.6293 209.47 9.49867 207.55 8.688C205.673 7.83466 203.603 7.408 201.342 7.408C199.123 7.408 197.054 7.83466 195.134 8.688C193.257 9.49867 191.635 10.6293 190.27 12.08C188.905 13.488 187.817 15.1947 187.006 17.2C186.238 19.1627 185.854 21.296 185.854 23.6ZM256.707 20.016L250.115 15.664C250.243 15.4933 250.392 15.2373 250.563 14.896L257.155 19.248L256.707 20.016ZM291.331 39.472C291.16 39.8133 291.011 40.0693 290.883 40.24L284.355 35.888L284.739 35.12L291.331 39.472ZM255.811 21.744L249.283 17.392L249.667 16.624L256.195 20.912L255.811 21.744ZM291.779 38.512L285.251 34.16L285.571 33.392L292.163 37.68L291.779 38.512ZM285.891 46.128L279.363 41.84L280.067 41.264L286.595 45.552L285.891 46.128ZM251.203 14.064C251.288 13.936 251.374 13.8293 251.459 13.744C251.544 13.616 251.63 13.488 251.715 13.36L258.307 17.712L257.731 18.352L251.203 14.064ZM252.483 12.592C252.568 12.5067 252.654 12.4 252.739 12.272C252.867 12.144 252.995 12.0373 253.123 11.952L259.651 16.304L259.011 16.88L252.483 12.592ZM290.371 41.136C290.286 41.264 290.2 41.392 290.115 41.52C290.03 41.648 289.944 41.7547 289.859 41.84L283.267 37.488C283.352 37.4027 283.438 37.296 283.523 37.168C283.608 37.04 283.694 36.912 283.779 36.784L290.371 41.136ZM262.211 14.448L255.811 10.16L256.707 9.712L263.107 13.936L262.211 14.448ZM282.499 48.496L276.035 44.272L276.867 43.76L283.331 47.984L282.499 48.496ZM293.571 32.752L287.107 28.528L287.299 27.568L293.763 31.856L293.571 32.752ZM292.803 35.888C292.76 36.016 292.718 36.144 292.675 36.272C292.632 36.4 292.59 36.5493 292.547 36.72L286.019 32.368C286.062 32.24 286.104 32.112 286.147 31.984C286.19 31.856 286.232 31.7067 286.275 31.536L292.803 35.888ZM248.131 22.512L254.531 26.736C254.531 26.9067 254.531 27.0773 254.531 27.248C254.531 27.376 254.51 27.5467 254.467 27.76L248.131 23.536V22.512ZM255.171 23.6L248.643 19.312L248.899 18.416L255.427 22.768L255.171 23.6ZM248.259 25.968C248.216 25.7547 248.195 25.5627 248.195 25.392C248.195 25.2213 248.195 25.0293 248.195 24.816L254.467 28.976V30.064L248.259 25.968ZM260.547 15.6L254.019 11.312L254.723 10.736L261.251 15.024L260.547 15.6ZM254.723 25.584L248.259 21.36L248.451 20.4L254.915 24.688L254.723 25.584ZM288.707 43.376L282.115 39.024L282.627 38.384L289.219 42.736L288.707 43.376ZM293.891 27.376C293.934 27.5467 293.955 27.7173 293.955 27.888C293.955 28.0587 293.955 28.2293 293.955 28.4L287.555 24.24C287.555 24.112 287.555 23.984 287.555 23.856C287.598 23.728 287.619 23.6 287.619 23.472V23.216L293.891 27.376ZM293.123 34.8L286.595 30.512C286.68 30.256 286.766 29.9573 286.851 29.616L293.315 33.904L293.123 34.8ZM265.283 13.104C265.07 13.1467 264.878 13.1893 264.707 13.232C264.579 13.2747 264.43 13.3387 264.259 13.424L257.923 9.264C258.094 9.17867 258.264 9.136 258.435 9.136C258.606 9.09333 258.798 9.02933 259.011 8.944L265.283 13.104ZM284.995 46.832C284.782 47.0453 284.547 47.216 284.291 47.344L277.827 43.12L278.531 42.544L284.995 46.832ZM278.339 50.352L272.003 46.192L273.027 45.808L279.363 49.968L278.339 50.352ZM293.891 30.64L287.427 26.416C287.427 26.2453 287.427 26.096 287.427 25.968C287.47 25.7973 287.491 25.6267 287.491 25.456L293.891 29.68V30.64ZM281.411 49.072C281.24 49.2 280.942 49.3493 280.515 49.52L274.115 45.296L275.011 44.848L281.411 49.072ZM287.363 44.784L280.835 40.496L281.411 39.856L287.939 44.208L287.363 44.784ZM273.091 51.504L267.075 47.536L268.227 47.28L274.435 51.312L273.091 51.504ZM276.995 50.736C276.824 50.8213 276.654 50.864 276.483 50.864C276.312 50.9067 276.12 50.9707 275.907 51.056L269.699 46.96C270.083 46.7893 270.424 46.6827 270.723 46.64L276.995 50.736ZM293.827 26.032L287.555 21.872C287.555 21.7013 287.534 21.5307 287.491 21.36C287.491 21.1893 287.491 21.0187 287.491 20.848L293.635 24.88L293.827 26.032ZM267.907 12.528C267.694 12.5707 267.48 12.592 267.267 12.592C267.096 12.592 266.904 12.6347 266.691 12.72L260.547 8.688C260.76 8.64533 260.974 8.624 261.187 8.624C261.443 8.58133 261.699 8.56 261.955 8.56L267.907 12.528ZM248.515 27.376L254.595 31.408L254.851 32.56L248.899 28.656L248.515 27.376ZM293.123 22.256C293.166 22.4693 293.208 22.6613 293.251 22.832C293.294 23.0027 293.358 23.1947 293.443 23.408L287.299 19.376L287.107 18.288L293.123 22.256ZM292.099 19.248C292.184 19.4613 292.27 19.696 292.355 19.952C292.44 20.1653 292.526 20.4 292.611 20.656L286.723 16.752L286.403 15.472L292.099 19.248ZM269.891 51.696L264.067 47.856L265.475 47.728L271.363 51.632C271.15 51.6747 270.936 51.696 270.723 51.696C270.51 51.696 270.296 51.696 270.083 51.696H269.891ZM250.499 32.048C250.158 31.4507 249.859 30.896 249.603 30.384L255.235 34.096C255.32 34.3093 255.384 34.544 255.427 34.8C255.512 35.0133 255.598 35.2267 255.683 35.44L250.499 32.048ZM265.923 51.376L260.611 47.856C260.867 47.8987 261.123 47.92 261.379 47.92C261.678 47.92 261.955 47.92 262.211 47.92L267.843 51.568L265.923 51.376ZM269.571 12.336L263.939 8.624C264.707 8.70933 265.411 8.83733 266.051 9.008L271.235 12.4C271.022 12.3573 270.83 12.336 270.659 12.336C270.488 12.336 270.318 12.336 270.147 12.336H269.571ZM290.179 15.664C290.392 15.92 290.563 16.1973 290.691 16.496C290.862 16.752 291.032 17.0507 291.203 17.392L285.763 13.808L285.123 12.336L290.179 15.664ZM263.043 50.736C262.403 50.5653 261.784 50.3733 261.187 50.16C260.632 49.9467 260.056 49.712 259.459 49.456L256.131 47.216C256.856 47.4293 257.582 47.5573 258.307 47.6L263.043 50.736ZM284.099 9.584C285.763 10.6933 287.214 11.9733 288.451 13.424L284.163 10.608C283.992 10.3093 283.8 10.032 283.587 9.776C283.416 9.47733 283.224 9.17867 283.011 8.88L284.099 9.584ZM256.643 37.424C255.918 37.0827 255.214 36.6987 254.531 36.272C253.891 35.8027 253.272 35.2907 252.675 34.736L256.515 37.296L256.643 37.424ZM238.403 23.472C238.403 20.2293 239.022 17.2 240.259 14.384C241.496 11.5253 243.182 9.05066 245.315 6.96C247.491 4.86933 250.03 3.22666 252.931 2.032C255.875 0.837331 259.032 0.239998 262.403 0.239998C265.902 0.239998 269.123 0.815998 272.067 1.968C275.011 3.12 277.55 4.74133 279.683 6.832C281.816 8.88 283.48 11.3333 284.675 14.192C285.87 17.008 286.467 20.1013 286.467 23.472C286.467 26.8 285.848 29.8933 284.611 32.752C283.416 35.568 281.731 38.0213 279.555 40.112C277.422 42.16 274.883 43.7813 271.939 44.976C269.038 46.1707 265.859 46.768 262.403 46.768C258.947 46.768 255.747 46.192 252.803 45.04C249.902 43.8453 247.384 42.2027 245.251 40.112C243.118 38.0213 241.432 35.568 240.195 32.752C239 29.8933 238.403 26.8 238.403 23.472ZM246.979 23.6C246.979 25.8613 247.363 27.9733 248.131 29.936C248.942 31.8987 250.051 33.6267 251.459 35.12C252.867 36.5707 254.51 37.7227 256.387 38.576C258.264 39.3867 260.291 39.792 262.467 39.792C264.643 39.792 266.67 39.3867 268.547 38.576C270.424 37.7227 272.067 36.5707 273.475 35.12C274.883 33.6693 275.971 31.9627 276.739 30C277.55 28.0373 277.955 25.904 277.955 23.6C277.955 21.296 277.571 19.1627 276.803 17.2C276.035 15.1947 274.968 13.488 273.603 12.08C272.238 10.6293 270.595 9.49867 268.675 8.688C266.798 7.83466 264.728 7.408 262.467 7.408C260.248 7.408 258.179 7.83466 256.259 8.688C254.382 9.49867 252.76 10.6293 251.395 12.08C250.03 13.488 248.942 15.1947 248.131 17.2C247.363 19.1627 246.979 21.296 246.979 23.6Z" fill="white"/>
</svg>
