<svg width="390" height="40" viewBox="0 0 390 40" fill="none" xmlns="http://www.w3.org/2000/svg">
<path d="M7.03494 33.368L11.7869 36.488V37.256L7.03494 34.136V33.368ZM7.03494 31.64L11.7869 34.808V35.528L7.03494 32.408V31.64ZM7.03494 29.912L11.7869 33.08V33.848L7.03494 30.68V29.912ZM7.03494 28.184L11.7869 31.352V32.12L7.03494 28.952V28.184ZM7.03494 26.456L11.7869 29.624V30.392L7.03494 27.224V26.456ZM7.03494 24.728L11.7869 27.896V28.664L7.03494 25.496V24.728ZM7.03494 23L11.7869 26.168V26.936L7.03494 23.768V23ZM7.03494 21.272L11.7869 24.44V25.208L7.03494 22.04V21.272ZM7.03494 19.544L11.7869 22.712V23.48L7.03494 20.312V19.544ZM7.03494 17.816L11.7869 20.984V21.752L7.03494 18.584V17.816ZM34.5389 5.768L29.7869 2.648V1.88L33.0509 3.992L34.5389 5V5.768ZM29.7869 10.376L34.5389 13.496V14.264L29.7869 11.144V10.376ZM29.7869 31.112L34.5389 34.232V35L29.7869 31.88V31.112ZM29.7869 29.384L34.5389 32.504V33.272L29.7869 30.152V29.384ZM29.7869 27.656L34.5389 30.776V31.544L29.7869 28.424V27.656ZM29.7869 6.92L34.5389 10.04V10.808L29.7869 7.688V6.92ZM29.7869 25.928L34.5389 29.048V29.816L29.7869 26.696V25.928ZM29.7869 22.472L34.5389 25.592V26.36L29.7869 23.24V22.472ZM29.7869 8.648L34.5389 11.768V12.536L29.7869 9.416V8.648ZM29.7869 3.464L34.5389 6.584V7.352L29.7869 4.232V3.464ZM29.7869 24.2L34.5389 27.32V28.088L29.7869 24.968V24.2ZM29.7869 12.104L34.5389 15.224V15.992L29.7869 12.872V12.104ZM29.7869 13.832L34.5389 16.952V17.72L29.7869 14.6V13.832ZM29.7869 34.568L34.5389 37.688V38.408L29.7869 35.288V34.568ZM29.7869 17.288L34.5389 20.408V21.176L29.7869 18.056V17.288ZM29.7869 15.56L34.5389 18.68V19.448L29.7869 16.328V15.56ZM29.7869 5.192L34.5389 8.312V9.08L29.7869 5.96V5.192ZM29.7869 32.84L34.5389 35.96V36.68L29.7869 33.608V32.84ZM29.7869 20.744L34.5389 23.864V24.632L29.7869 21.512V20.744ZM29.7869 19.016L34.5389 22.136V22.904L29.7869 19.784V19.016ZM11.3069 38.696L7.03494 35.864V35.096L11.7869 38.216V38.696H11.3069ZM5.59494 35.864L9.86694 38.696H8.71494L4.39494 35.864H5.59494ZM2.95494 35.864L7.27494 38.696H6.07494L1.80294 35.864H2.95494ZM28.6349 36.104H29.4989L33.8189 38.936H32.9069L28.6349 36.104ZM7.03494 16.184L9.00294 18.152L7.03494 16.856V16.184ZM0.218938 1.064H2.09094L22.9709 22.808V1.256H28.9229V35.24H27.3389L6.17094 14.072V35H0.218938V1.064ZM49.6901 34.136L54.4421 37.256V38.024L49.6901 34.904V34.136ZM49.6901 32.408L54.4421 35.528V36.296L49.6901 33.176V32.408ZM49.6901 30.68L54.4421 33.8V34.568L49.6901 31.448V30.68ZM49.6901 28.952L54.4421 32.072V32.84L49.6901 29.72V28.952ZM49.6901 8.216L54.4421 11.336V12.104L49.6901 8.984V8.216ZM49.6901 27.224L54.4421 30.344V31.112L49.6901 27.992V27.224ZM49.6901 25.496L54.4421 28.616V29.384L49.6901 26.264V25.496ZM49.6901 23.768L54.4421 26.888V27.656L49.6901 24.536V23.768ZM49.6901 11.672L54.4421 14.792V15.56L49.6901 12.44V11.672ZM49.6901 9.944L54.4421 13.064V13.832L49.6901 10.712V9.944ZM63.8981 17.576L68.6501 20.744V21.512L63.8981 18.344V17.576ZM65.7221 3.224L70.4741 6.392V7.16L65.7221 3.992V3.224ZM63.8981 21.032L68.6501 24.2V24.968L63.8981 21.8V21.032ZM63.8981 19.304L68.6501 22.472V23.24L63.8981 20.072V19.304ZM65.7221 4.952L70.4741 8.12V8.888L65.7221 5.72V4.952ZM70.2341 10.424L65.7221 7.448V6.68L70.4741 9.848V10.424H70.2341ZM54.4421 25.928L49.6901 22.808V22.712H50.6981L55.0181 25.544H54.4421V25.928ZM51.3701 7.592L55.6901 10.424H54.4901L50.1701 7.592H51.3701ZM47.0981 35.864L51.3701 38.696H50.4101L46.1381 35.864H47.0981ZM61.2101 22.712L65.5301 25.544H64.3301L60.0101 22.712H61.2101ZM53.3381 22.712L57.6581 25.544H56.4581L52.1381 22.712H53.3381ZM63.8501 22.712L68.1221 25.544H66.9221L62.6501 22.712H63.8501ZM49.6901 35.864V35.816L54.0101 38.696H52.8101L48.5381 35.864H49.6901ZM54.0101 7.592L58.2821 10.424H57.1301L52.8101 7.592H54.0101ZM58.5701 22.712L62.8901 25.544H61.6901L57.4181 22.712H58.5701ZM55.9781 22.712L60.2501 25.544H59.0981L54.7781 22.712H55.9781ZM61.8341 7.592L66.1541 10.424H64.9541L60.6821 7.592H61.8341ZM64.4741 7.592L68.7941 10.424H67.5941L63.3221 7.592H64.4741ZM59.2421 7.592L63.5141 10.424H62.3621L58.0421 7.592H59.2421ZM56.6021 7.592L60.9221 10.424H59.7221L55.4501 7.592H56.6021ZM70.4741 5.576L65.7221 2.408V1.832L70.4741 5V5.576ZM49.6901 14.168V13.4L53.1941 15.704H51.9941L49.6901 14.168ZM44.2181 35.864H44.9861L49.3061 38.696H48.4901L44.2181 35.864ZM49.6901 15.128L50.6021 15.704H49.6901V15.128ZM42.9221 1.256H64.8581V6.728H48.8261V16.568H63.0341V21.848H48.8261V35H42.9221V1.256ZM89.9816 13.304L94.7336 16.424V17.24L89.9816 14.072V13.304ZM101.07 5.048L105.822 8.216V8.984L101.07 5.864V5.048ZM101.07 3.32L105.822 6.488V7.256L101.07 4.136V3.32ZM105.39 10.424L101.07 7.592V6.776L105.822 9.944V10.424H105.39ZM89.9816 28.856L94.7336 32.024V32.792L89.9816 29.624V28.856ZM89.9816 23.672L94.7336 26.84V27.608L89.9816 24.44V23.672ZM89.9816 20.216L94.7336 23.384V24.152L89.9816 20.984V20.216ZM89.9816 25.4L94.7336 28.568V29.336L89.9816 26.168V25.4ZM89.9816 16.76L94.7336 19.928V20.696L89.9816 17.528V16.76ZM89.9816 11.576L94.7336 14.744V15.512L89.9816 12.344V11.576ZM89.9816 18.488L94.7336 21.656V22.424L89.9816 19.256V18.488ZM89.9816 8.12L94.7336 11.288V12.056L89.9816 8.888V8.12ZM89.9816 9.848L94.7336 13.016V13.784L89.9816 10.616V9.848ZM89.9816 21.944L94.7336 25.112V25.88L89.9816 22.712V21.944ZM89.9816 34.04L94.7336 37.16V37.928L89.9816 34.808V34.04ZM89.9816 32.312L94.7336 35.432V36.2L89.9816 33.08V32.312ZM89.9816 15.032L94.7336 18.2V18.968L89.9816 15.8V15.032ZM89.9816 30.584L94.7336 33.752V34.52L89.9816 31.352V30.584ZM89.9816 27.128L94.7336 30.296V31.064L89.9816 27.896V27.128ZM89.9816 35.864V35.768L94.3976 38.696H93.2456L88.9256 35.864H89.9816ZM99.6776 7.592L103.95 10.424H102.798L98.4776 7.592H99.6776ZM97.0376 7.592L101.358 10.424H100.158L95.8856 7.592H97.0376ZM91.8056 7.592L96.0776 10.424H94.9256L90.6056 7.592H91.8056ZM94.3976 7.592L98.7176 10.424H97.5176L93.2456 7.592H94.3976ZM76.0616 7.592L80.3816 10.424H79.4216L75.1496 7.592H76.0616ZM87.5816 35.864L91.9016 38.696H90.7976L86.5256 35.864H87.5816ZM105.822 5.672L101.07 2.552V1.832L105.822 5V5.672ZM81.8216 10.424L77.5016 7.592H78.7016L82.2536 9.944V10.424H81.8216ZM84.4136 35.864H85.4216L89.6936 38.696H88.6856L84.4136 35.864ZM81.3416 7.592L82.2536 8.216V8.984L80.1416 7.592H81.3416ZM73.1336 7.592H73.9976L78.2696 10.424H77.4056L73.1336 7.592ZM71.8376 1.256H100.206V6.728H89.1176V35H83.1176V6.728H71.8376V1.256ZM122.097 10.28L126.849 13.4V14.168L122.097 11.048V10.28ZM122.097 5.096L126.849 8.216V8.984L122.097 5.864V5.096ZM122.097 29.288L126.849 32.408V33.176L122.097 30.056V29.288ZM122.097 27.56L126.849 30.68V31.448L122.097 28.328V27.56ZM122.097 3.368L126.849 6.488V7.256L122.097 4.136V3.368ZM122.097 8.552L126.849 11.672V12.44L122.097 9.32V8.552ZM122.097 12.008L126.849 15.128V15.896L122.097 12.776V12.008ZM122.097 15.464L126.849 18.584V19.352L122.097 16.232V15.464ZM122.097 22.376L126.849 25.496V26.264L122.097 23.144V22.376ZM122.097 6.824L126.849 9.944V10.712L122.097 7.592V6.824ZM122.097 20.648L126.849 23.768V24.536L122.097 21.416V20.648ZM122.097 13.736L126.849 16.856V17.624L122.097 14.504V13.736ZM122.097 32.744L126.849 35.864V36.632L122.097 33.512V32.744ZM122.097 17.192L126.849 20.312V21.08L122.097 17.96V17.192ZM122.097 25.832L126.849 28.952V29.72L122.097 26.6V25.832ZM122.097 31.016L126.849 34.136V34.904L122.097 31.784V31.016ZM122.097 24.104L126.849 27.224V27.992L122.097 24.872V24.104ZM122.097 34.472L126.849 37.592V38.36L122.097 35.24V34.472ZM122.097 18.92L126.849 22.04V22.808L122.097 19.688V18.92ZM126.849 5.672L122.097 2.552V1.832L126.849 5V5.672ZM121.569 35.864L125.889 38.696H124.737L120.417 35.864H121.569ZM118.977 35.864L123.249 38.696H122.097L117.825 35.864H118.977ZM110.817 11.48L114.417 13.88V14.6L110.049 11.768L110.817 11.48ZM112.449 10.856L114.417 12.104V12.872L111.729 11.144L112.449 10.856ZM114.129 10.232L114.417 10.424V11.192L113.409 10.52L114.129 10.232ZM115.281 35V8.792L108.177 11.528L106.161 6.488L119.793 1.256H121.233V35H115.281ZM146.882 15.512L141.938 12.248C142.034 12.12 142.146 11.928 142.274 11.672L147.218 14.936L146.882 15.512ZM172.85 30.104C172.722 30.36 172.61 30.552 172.514 30.68L167.618 27.416L167.906 26.84L172.85 30.104ZM146.21 16.808L141.314 13.544L141.602 12.968L146.498 16.184L146.21 16.808ZM173.186 29.384L168.29 26.12L168.53 25.544L173.474 28.76L173.186 29.384ZM168.77 35.096L163.874 31.88L164.402 31.448L169.298 34.664L168.77 35.096ZM142.754 11.048C142.818 10.952 142.882 10.872 142.946 10.808C143.01 10.712 143.074 10.616 143.138 10.52L148.082 13.784L147.65 14.264L142.754 11.048ZM143.714 9.944C143.778 9.88 143.842 9.8 143.906 9.704C144.002 9.608 144.098 9.528 144.194 9.464L149.09 12.728L148.61 13.16L143.714 9.944ZM172.13 31.352C172.066 31.448 172.002 31.544 171.938 31.64C171.874 31.736 171.81 31.816 171.746 31.88L166.802 28.616C166.866 28.552 166.93 28.472 166.994 28.376C167.058 28.28 167.122 28.184 167.186 28.088L172.13 31.352ZM151.01 11.336L146.21 8.12L146.882 7.784L151.682 10.952L151.01 11.336ZM166.226 36.872L161.378 33.704L162.002 33.32L166.85 36.488L166.226 36.872ZM174.53 25.064L169.682 21.896L169.826 21.176L174.674 24.392L174.53 25.064ZM173.954 27.416C173.922 27.512 173.89 27.608 173.858 27.704C173.826 27.8 173.794 27.912 173.762 28.04L168.866 24.776C168.898 24.68 168.93 24.584 168.962 24.488C168.994 24.392 169.026 24.28 169.058 24.152L173.954 27.416ZM140.45 17.384L145.25 20.552C145.25 20.68 145.25 20.808 145.25 20.936C145.25 21.032 145.234 21.16 145.202 21.32L140.45 18.152V17.384ZM145.73 18.2L140.834 14.984L141.026 14.312L145.922 17.576L145.73 18.2ZM140.546 19.976C140.514 19.816 140.498 19.672 140.498 19.544C140.498 19.416 140.498 19.272 140.498 19.112L145.202 22.232V23.048L140.546 19.976ZM149.762 12.2L144.866 8.984L145.394 8.552L150.29 11.768L149.762 12.2ZM145.394 19.688L140.546 16.52L140.69 15.8L145.538 19.016L145.394 19.688ZM170.882 33.032L165.938 29.768L166.322 29.288L171.266 32.552L170.882 33.032ZM174.77 21.032C174.802 21.16 174.818 21.288 174.818 21.416C174.818 21.544 174.818 21.672 174.818 21.8L170.018 18.68C170.018 18.584 170.018 18.488 170.018 18.392C170.05 18.296 170.066 18.2 170.066 18.104V17.912L174.77 21.032ZM174.194 26.6L169.298 23.384C169.362 23.192 169.426 22.968 169.49 22.712L174.338 25.928L174.194 26.6ZM153.314 10.328C153.154 10.36 153.01 10.392 152.882 10.424C152.786 10.456 152.674 10.504 152.546 10.568L147.794 7.448C147.922 7.384 148.05 7.352 148.178 7.352C148.306 7.32 148.45 7.272 148.61 7.208L153.314 10.328ZM168.098 35.624C167.938 35.784 167.762 35.912 167.57 36.008L162.722 32.84L163.25 32.408L168.098 35.624ZM163.106 38.264L158.354 35.144L159.122 34.856L163.874 37.976L163.106 38.264ZM174.77 23.48L169.922 20.312C169.922 20.184 169.922 20.072 169.922 19.976C169.954 19.848 169.97 19.72 169.97 19.592L174.77 22.76V23.48ZM165.41 37.304C165.282 37.4 165.058 37.512 164.738 37.64L159.938 34.472L160.61 34.136L165.41 37.304ZM169.874 34.088L164.978 30.872L165.41 30.392L170.306 33.656L169.874 34.088ZM159.17 39.128L154.658 36.152L155.522 35.96L160.178 38.984L159.17 39.128ZM162.098 38.552C161.97 38.616 161.842 38.648 161.714 38.648C161.586 38.68 161.442 38.728 161.282 38.792L156.626 35.72C156.914 35.592 157.17 35.512 157.394 35.48L162.098 38.552ZM174.722 20.024L170.018 16.904C170.018 16.776 170.002 16.648 169.97 16.52C169.97 16.392 169.97 16.264 169.97 16.136L174.578 19.16L174.722 20.024ZM155.282 9.896C155.122 9.928 154.962 9.944 154.802 9.944C154.674 9.944 154.53 9.976 154.37 10.04L149.762 7.016C149.922 6.984 150.082 6.968 150.242 6.968C150.434 6.936 150.626 6.92 150.818 6.92L155.282 9.896ZM140.738 21.032L145.298 24.056L145.49 24.92L141.026 21.992L140.738 21.032ZM174.194 17.192C174.226 17.352 174.258 17.496 174.29 17.624C174.322 17.752 174.37 17.896 174.434 18.056L169.826 15.032L169.682 14.216L174.194 17.192ZM173.426 14.936C173.49 15.096 173.554 15.272 173.618 15.464C173.682 15.624 173.746 15.8 173.81 15.992L169.394 13.064L169.154 12.104L173.426 14.936ZM156.77 39.272L152.402 36.392L153.458 36.296L157.874 39.224C157.714 39.256 157.554 39.272 157.394 39.272C157.234 39.272 157.074 39.272 156.914 39.272H156.77ZM142.226 24.536C141.97 24.088 141.746 23.672 141.554 23.288L145.778 26.072C145.842 26.232 145.89 26.408 145.922 26.6C145.986 26.76 146.05 26.92 146.114 27.08L142.226 24.536ZM153.794 39.032L149.81 36.392C150.002 36.424 150.194 36.44 150.386 36.44C150.61 36.44 150.818 36.44 151.01 36.44L155.234 39.176L153.794 39.032ZM156.53 9.752L152.306 6.968C152.882 7.032 153.41 7.128 153.89 7.256L157.778 9.8C157.618 9.768 157.474 9.752 157.346 9.752C157.218 9.752 157.09 9.752 156.962 9.752H156.53ZM171.986 12.248C172.146 12.44 172.274 12.648 172.37 12.872C172.498 13.064 172.626 13.288 172.754 13.544L168.674 10.856L168.194 9.752L171.986 12.248ZM151.634 38.552C151.154 38.424 150.69 38.28 150.242 38.12C149.826 37.96 149.394 37.784 148.946 37.592L146.45 35.912C146.994 36.072 147.538 36.168 148.082 36.2L151.634 38.552ZM167.426 7.688C168.674 8.52 169.762 9.48 170.69 10.568L167.474 8.456C167.346 8.232 167.202 8.024 167.042 7.832C166.914 7.608 166.77 7.384 166.61 7.16L167.426 7.688ZM146.834 28.568C146.29 28.312 145.762 28.024 145.25 27.704C144.77 27.352 144.306 26.968 143.858 26.552L146.738 28.472L146.834 28.568ZM133.154 18.104C133.154 15.672 133.618 13.4 134.546 11.288C135.474 9.144 136.738 7.288 138.338 5.72C139.97 4.152 141.874 2.92 144.05 2.024C146.258 1.128 148.626 0.679998 151.154 0.679998C153.778 0.679998 156.194 1.112 158.402 1.976C160.61 2.84 162.514 4.056 164.114 5.624C165.714 7.16 166.962 9 167.858 11.144C168.754 13.256 169.202 15.576 169.202 18.104C169.202 20.6 168.738 22.92 167.81 25.064C166.914 27.176 165.65 29.016 164.018 30.584C162.418 32.12 160.514 33.336 158.306 34.232C156.13 35.128 153.746 35.576 151.154 35.576C148.562 35.576 146.162 35.144 143.954 34.28C141.778 33.384 139.89 32.152 138.29 30.584C136.69 29.016 135.426 27.176 134.498 25.064C133.602 22.92 133.154 20.6 133.154 18.104ZM139.586 18.2C139.586 19.896 139.874 21.48 140.45 22.952C141.058 24.424 141.89 25.72 142.946 26.84C144.002 27.928 145.234 28.792 146.642 29.432C148.05 30.04 149.57 30.344 151.202 30.344C152.834 30.344 154.354 30.04 155.762 29.432C157.17 28.792 158.402 27.928 159.458 26.84C160.514 25.752 161.33 24.472 161.906 23C162.514 21.528 162.818 19.928 162.818 18.2C162.818 16.472 162.53 14.872 161.954 13.4C161.378 11.896 160.578 10.616 159.554 9.56C158.53 8.472 157.298 7.624 155.858 7.016C154.45 6.376 152.898 6.056 151.202 6.056C149.538 6.056 147.986 6.376 146.546 7.016C145.138 7.624 143.922 8.472 142.898 9.56C141.874 10.616 141.058 11.896 140.45 13.4C139.874 14.872 139.586 16.472 139.586 18.2ZM192.726 15.512L187.782 12.248C187.878 12.12 187.99 11.928 188.118 11.672L193.062 14.936L192.726 15.512ZM218.694 30.104C218.566 30.36 218.454 30.552 218.358 30.68L213.462 27.416L213.75 26.84L218.694 30.104ZM192.054 16.808L187.158 13.544L187.446 12.968L192.342 16.184L192.054 16.808ZM219.03 29.384L214.134 26.12L214.374 25.544L219.318 28.76L219.03 29.384ZM214.614 35.096L209.718 31.88L210.246 31.448L215.142 34.664L214.614 35.096ZM188.598 11.048C188.662 10.952 188.726 10.872 188.79 10.808C188.854 10.712 188.918 10.616 188.982 10.52L193.926 13.784L193.494 14.264L188.598 11.048ZM189.558 9.944C189.622 9.88 189.686 9.8 189.75 9.704C189.846 9.608 189.942 9.528 190.038 9.464L194.934 12.728L194.454 13.16L189.558 9.944ZM217.974 31.352C217.91 31.448 217.846 31.544 217.782 31.64C217.718 31.736 217.654 31.816 217.59 31.88L212.646 28.616C212.71 28.552 212.774 28.472 212.838 28.376C212.902 28.28 212.966 28.184 213.03 28.088L217.974 31.352ZM196.854 11.336L192.054 8.12L192.726 7.784L197.526 10.952L196.854 11.336ZM212.07 36.872L207.222 33.704L207.846 33.32L212.694 36.488L212.07 36.872ZM220.374 25.064L215.526 21.896L215.67 21.176L220.518 24.392L220.374 25.064ZM219.798 27.416C219.766 27.512 219.734 27.608 219.702 27.704C219.67 27.8 219.638 27.912 219.606 28.04L214.71 24.776C214.742 24.68 214.774 24.584 214.806 24.488C214.838 24.392 214.87 24.28 214.902 24.152L219.798 27.416ZM186.294 17.384L191.094 20.552C191.094 20.68 191.094 20.808 191.094 20.936C191.094 21.032 191.078 21.16 191.046 21.32L186.294 18.152V17.384ZM191.574 18.2L186.678 14.984L186.87 14.312L191.766 17.576L191.574 18.2ZM186.39 19.976C186.358 19.816 186.342 19.672 186.342 19.544C186.342 19.416 186.342 19.272 186.342 19.112L191.046 22.232V23.048L186.39 19.976ZM195.606 12.2L190.71 8.984L191.238 8.552L196.134 11.768L195.606 12.2ZM191.238 19.688L186.39 16.52L186.534 15.8L191.382 19.016L191.238 19.688ZM216.726 33.032L211.782 29.768L212.166 29.288L217.11 32.552L216.726 33.032ZM220.614 21.032C220.646 21.16 220.662 21.288 220.662 21.416C220.662 21.544 220.662 21.672 220.662 21.8L215.862 18.68C215.862 18.584 215.862 18.488 215.862 18.392C215.894 18.296 215.91 18.2 215.91 18.104V17.912L220.614 21.032ZM220.038 26.6L215.142 23.384C215.206 23.192 215.27 22.968 215.334 22.712L220.182 25.928L220.038 26.6ZM199.158 10.328C198.998 10.36 198.854 10.392 198.726 10.424C198.63 10.456 198.518 10.504 198.39 10.568L193.638 7.448C193.766 7.384 193.894 7.352 194.022 7.352C194.15 7.32 194.294 7.272 194.454 7.208L199.158 10.328ZM213.942 35.624C213.782 35.784 213.606 35.912 213.414 36.008L208.566 32.84L209.094 32.408L213.942 35.624ZM208.95 38.264L204.198 35.144L204.966 34.856L209.718 37.976L208.95 38.264ZM220.614 23.48L215.766 20.312C215.766 20.184 215.766 20.072 215.766 19.976C215.798 19.848 215.814 19.72 215.814 19.592L220.614 22.76V23.48ZM211.254 37.304C211.126 37.4 210.902 37.512 210.582 37.64L205.782 34.472L206.454 34.136L211.254 37.304ZM215.718 34.088L210.822 30.872L211.254 30.392L216.15 33.656L215.718 34.088ZM205.014 39.128L200.502 36.152L201.366 35.96L206.022 38.984L205.014 39.128ZM207.942 38.552C207.814 38.616 207.686 38.648 207.558 38.648C207.43 38.68 207.286 38.728 207.126 38.792L202.47 35.72C202.758 35.592 203.014 35.512 203.238 35.48L207.942 38.552ZM220.566 20.024L215.862 16.904C215.862 16.776 215.846 16.648 215.814 16.52C215.814 16.392 215.814 16.264 215.814 16.136L220.422 19.16L220.566 20.024ZM201.126 9.896C200.966 9.928 200.806 9.944 200.646 9.944C200.518 9.944 200.374 9.976 200.214 10.04L195.606 7.016C195.766 6.984 195.926 6.968 196.086 6.968C196.278 6.936 196.47 6.92 196.662 6.92L201.126 9.896ZM186.582 21.032L191.142 24.056L191.334 24.92L186.87 21.992L186.582 21.032ZM220.038 17.192C220.07 17.352 220.102 17.496 220.134 17.624C220.166 17.752 220.214 17.896 220.278 18.056L215.67 15.032L215.526 14.216L220.038 17.192ZM219.27 14.936C219.334 15.096 219.398 15.272 219.462 15.464C219.526 15.624 219.59 15.8 219.654 15.992L215.238 13.064L214.998 12.104L219.27 14.936ZM202.614 39.272L198.246 36.392L199.302 36.296L203.718 39.224C203.558 39.256 203.398 39.272 203.238 39.272C203.078 39.272 202.918 39.272 202.758 39.272H202.614ZM188.07 24.536C187.814 24.088 187.59 23.672 187.398 23.288L191.622 26.072C191.686 26.232 191.734 26.408 191.766 26.6C191.83 26.76 191.894 26.92 191.958 27.08L188.07 24.536ZM199.638 39.032L195.654 36.392C195.846 36.424 196.038 36.44 196.23 36.44C196.454 36.44 196.662 36.44 196.854 36.44L201.078 39.176L199.638 39.032ZM202.374 9.752L198.15 6.968C198.726 7.032 199.254 7.128 199.734 7.256L203.622 9.8C203.462 9.768 203.318 9.752 203.19 9.752C203.062 9.752 202.934 9.752 202.806 9.752H202.374ZM217.83 12.248C217.99 12.44 218.118 12.648 218.214 12.872C218.342 13.064 218.47 13.288 218.598 13.544L214.518 10.856L214.038 9.752L217.83 12.248ZM197.478 38.552C196.998 38.424 196.534 38.28 196.086 38.12C195.67 37.96 195.238 37.784 194.79 37.592L192.294 35.912C192.838 36.072 193.382 36.168 193.926 36.2L197.478 38.552ZM213.27 7.688C214.518 8.52 215.606 9.48 216.534 10.568L213.318 8.456C213.19 8.232 213.046 8.024 212.886 7.832C212.758 7.608 212.614 7.384 212.454 7.16L213.27 7.688ZM192.678 28.568C192.134 28.312 191.606 28.024 191.094 27.704C190.614 27.352 190.15 26.968 189.702 26.552L192.582 28.472L192.678 28.568ZM178.998 18.104C178.998 15.672 179.462 13.4 180.39 11.288C181.318 9.144 182.582 7.288 184.182 5.72C185.814 4.152 187.718 2.92 189.894 2.024C192.102 1.128 194.47 0.679998 196.998 0.679998C199.622 0.679998 202.038 1.112 204.246 1.976C206.454 2.84 208.358 4.056 209.958 5.624C211.558 7.16 212.806 9 213.702 11.144C214.598 13.256 215.046 15.576 215.046 18.104C215.046 20.6 214.582 22.92 213.654 25.064C212.758 27.176 211.494 29.016 209.862 30.584C208.262 32.12 206.358 33.336 204.15 34.232C201.974 35.128 199.59 35.576 196.998 35.576C194.406 35.576 192.006 35.144 189.798 34.28C187.622 33.384 185.734 32.152 184.134 30.584C182.534 29.016 181.27 27.176 180.342 25.064C179.446 22.92 178.998 20.6 178.998 18.104ZM185.43 18.2C185.43 19.896 185.718 21.48 186.294 22.952C186.902 24.424 187.734 25.72 188.79 26.84C189.846 27.928 191.078 28.792 192.486 29.432C193.894 30.04 195.414 30.344 197.046 30.344C198.678 30.344 200.198 30.04 201.606 29.432C203.014 28.792 204.246 27.928 205.302 26.84C206.358 25.752 207.174 24.472 207.75 23C208.358 21.528 208.662 19.928 208.662 18.2C208.662 16.472 208.374 14.872 207.798 13.4C207.222 11.896 206.422 10.616 205.398 9.56C204.374 8.472 203.142 7.624 201.702 7.016C200.294 6.376 198.742 6.056 197.046 6.056C195.382 6.056 193.83 6.376 192.39 7.016C190.982 7.624 189.766 8.472 188.742 9.56C187.718 10.616 186.902 11.896 186.294 13.4C185.718 14.872 185.43 16.472 185.43 18.2ZM275.142 32.744C274.278 33.288 273.27 33.768 272.118 34.184C271.126 34.536 269.942 34.856 268.566 35.144C267.19 35.432 265.638 35.576 263.91 35.576C261.062 35.576 258.47 35.144 256.134 34.28C253.798 33.384 251.798 32.152 250.134 30.584C248.47 29.016 247.174 27.176 246.246 25.064C245.35 22.92 244.902 20.6 244.902 18.104C244.902 15.672 245.382 13.4 246.342 11.288C247.302 9.144 248.598 7.288 250.23 5.72C251.894 4.152 253.83 2.92 256.038 2.024C258.246 1.128 260.598 0.679998 263.094 0.679998C264.95 0.679998 266.614 0.823998 268.086 1.112C269.558 1.4 270.806 1.72 271.83 2.072C273.046 2.456 274.102 2.904 274.998 3.416L272.934 8.504C272.07 8.12 271.142 7.752 270.15 7.4C269.318 7.144 268.374 6.904 267.318 6.68C266.262 6.424 265.19 6.296 264.102 6.296C262.118 6.296 260.342 6.6 258.774 7.208C257.206 7.784 255.862 8.6 254.742 9.656C253.654 10.712 252.806 11.976 252.198 13.448C251.622 14.888 251.334 16.472 251.334 18.2C251.334 19.896 251.638 21.464 252.246 22.904C252.854 24.344 253.702 25.592 254.79 26.648C255.878 27.672 257.158 28.488 258.63 29.096C260.134 29.672 261.766 29.96 263.526 29.96C264.966 29.96 266.278 29.848 267.462 29.624C268.678 29.368 269.718 29.096 270.582 28.808C271.606 28.456 272.518 28.072 273.318 27.656L275.142 32.744ZM252.726 14.504L257.622 17.72L257.43 18.392L252.534 15.176L252.726 14.504ZM254.886 10.76L259.83 13.976L259.398 14.504L254.454 11.24L254.886 10.76ZM253.638 12.44C253.702 12.344 253.766 12.248 253.83 12.152C253.894 12.056 253.958 11.976 254.022 11.912L258.918 15.128L258.582 15.704L253.638 12.44ZM253.014 13.736C253.046 13.64 253.078 13.544 253.11 13.448C253.174 13.352 253.238 13.256 253.302 13.16L258.198 16.376L257.91 17L253.014 13.736ZM260.358 13.4L255.462 10.184L255.99 9.752L260.886 12.968L260.358 13.4ZM258.774 8.12L263.526 11.288L262.854 11.624L258.054 8.456L258.774 8.12ZM272.886 34.712L277.638 37.832L276.87 38.12L272.118 35L272.886 34.712ZM275.91 33.272L280.614 36.344L280.71 36.536L280.134 36.824L275.286 33.608L275.91 33.272ZM257.094 19.88L252.294 16.712C252.294 16.552 252.326 16.312 252.39 15.992L257.238 19.208L257.094 19.88ZM274.134 7.928L278.982 11.096L278.742 11.72L273.894 8.504L274.134 7.928ZM275.238 5.192L280.086 8.36L279.846 8.984L274.998 5.768L275.238 5.192ZM274.71 6.536L279.558 9.752L279.318 10.328L274.47 7.16L274.71 6.536ZM256.662 9.224C256.758 9.16 256.854 9.112 256.95 9.08C257.046 9.016 257.158 8.952 257.286 8.888L262.086 12.056L261.51 12.44L256.662 9.224ZM256.998 20.792C256.966 20.952 256.95 21.192 256.95 21.512L252.198 18.392V17.624L256.998 20.792ZM270.342 35.528C270.598 35.496 270.87 35.416 271.158 35.288L275.862 38.408C275.702 38.44 275.558 38.472 275.43 38.504C275.302 38.536 275.158 38.568 274.998 38.6L270.342 35.528ZM252.246 19.4L256.95 22.472C256.95 22.632 256.95 22.776 256.95 22.904C256.95 23 256.966 23.128 256.998 23.288L252.342 20.216L252.246 19.4ZM280.374 7.736L275.526 4.52L275.766 3.944L280.614 7.16L280.374 7.736ZM262.662 7.208L267.174 10.232L266.262 10.376L261.654 7.352L262.662 7.208ZM274.422 34.04L279.27 37.208L278.598 37.496L273.75 34.328L274.422 34.04ZM260.55 7.592L265.206 10.664C265.046 10.696 264.902 10.728 264.774 10.76C264.678 10.792 264.566 10.84 264.438 10.904L259.686 7.784L260.55 7.592ZM252.582 21.32L257.094 24.296L257.286 25.208L252.918 22.328L252.582 21.32ZM268.422 35.96C268.582 35.928 268.726 35.896 268.854 35.864C268.982 35.864 269.126 35.832 269.286 35.768L273.942 38.84L273.03 38.984L268.422 35.96ZM263.91 36.44C264.102 36.44 264.278 36.44 264.438 36.44C264.63 36.44 264.822 36.424 265.014 36.392L269.334 39.272C269.11 39.272 268.886 39.256 268.662 39.224C268.47 39.224 268.278 39.224 268.086 39.224L263.862 36.44H263.91ZM274.71 29L279.03 31.832L279.366 32.84L275.094 30.008L274.71 29ZM275.526 31.256L279.846 34.088L280.182 35.096L275.91 32.264L275.526 31.256ZM264.102 7.16C264.294 7.16 264.486 7.176 264.678 7.208C264.87 7.208 265.078 7.224 265.302 7.256L269.478 9.992C269.286 9.992 269.094 10.008 268.902 10.04C268.742 10.04 268.566 10.04 268.374 10.04L264.006 7.16H264.102ZM266.31 36.296C266.47 36.296 266.63 36.28 266.79 36.248C266.95 36.248 267.11 36.232 267.27 36.2L271.782 39.176C271.59 39.176 271.414 39.176 271.254 39.176C271.094 39.208 270.918 39.224 270.726 39.224L266.31 36.296ZM262.374 36.392L266.406 39.032C266.118 39 265.83 38.968 265.542 38.936C265.286 38.904 265.03 38.856 264.774 38.792L260.982 36.296L262.374 36.392ZM254.598 25.16C254.438 24.936 254.278 24.712 254.118 24.488C253.958 24.232 253.798 23.976 253.638 23.72L257.622 26.36C257.686 26.552 257.75 26.744 257.814 26.936C257.91 27.096 257.99 27.272 258.054 27.464L254.598 25.16ZM267.222 7.544C267.542 7.608 267.862 7.688 268.182 7.784C268.502 7.848 268.822 7.928 269.142 8.024L272.454 10.232C272.198 10.168 271.958 10.136 271.734 10.136C271.51 10.104 271.27 10.072 271.014 10.04L267.222 7.544ZM257.43 35.576C257.686 35.64 257.958 35.704 258.246 35.768C258.534 35.832 258.822 35.896 259.11 35.96L262.374 38.12C261.606 37.864 260.87 37.56 260.166 37.208C259.462 36.888 258.79 36.504 258.15 36.056L257.43 35.576ZM272.406 9.224C272.566 9.288 272.694 9.352 272.79 9.416C272.918 9.448 273.03 9.496 273.126 9.56L273.414 9.704L273.606 9.272L277.014 11.528C276.662 11.4 276.294 11.272 275.91 11.144C275.526 11.016 275.11 10.888 274.662 10.76L272.406 9.224ZM293.254 13.688L298.006 16.808V17.576L293.254 14.456V13.688ZM293.254 11.96L298.006 15.08V15.848L293.254 12.728V11.96ZM293.254 22.328L298.006 25.448V26.216L293.254 23.096V22.328ZM293.254 10.232L298.006 13.352V14.12L293.254 11V10.232ZM293.254 6.776L298.006 9.896V10.664L293.254 7.544V6.776ZM293.254 5.048L298.006 8.168V8.936L293.254 5.816V5.048ZM293.254 3.32L298.006 6.44V7.208L293.254 4.088V3.32ZM293.254 15.416L298.006 18.536V19.304L293.254 16.184V15.416ZM293.254 8.504L298.006 11.624V12.392L293.254 9.272V8.504ZM293.254 24.056L298.006 27.176V27.944L293.254 24.824V24.056ZM293.254 20.6L298.006 23.72V24.488L293.254 21.368V20.6ZM293.254 18.872L298.006 21.992V22.76L293.254 19.64V18.872ZM293.254 17.144L298.006 20.264V21.032L293.254 17.912V17.144ZM309.238 32.888L313.99 35.96V36.728L309.238 33.608V32.888ZM309.238 31.16L313.99 34.28V35L309.238 31.88V31.16ZM309.238 34.616L313.99 37.688V38.456L309.238 35.336V34.616ZM292.822 35.864L297.142 38.696H295.942L291.67 35.864H292.822ZM303.334 35.864L307.606 38.696H306.454L302.134 35.864H303.334ZM295.462 35.864L299.734 38.696H298.582L294.262 35.864H295.462ZM290.23 35.864L294.502 38.696H293.35L289.03 35.864H290.23ZM298.054 35.864L302.374 38.696H301.222L296.902 35.864H298.054ZM308.566 35.864L312.838 38.696H311.686L307.414 35.864H308.566ZM305.926 35.864L310.246 38.696H309.094L304.774 35.864H305.926ZM300.694 35.864L304.966 38.696H303.814L299.542 35.864H300.694ZM298.006 5.624L293.254 2.504V1.832L298.006 5V5.624ZM293.254 25.784L297.622 28.664H296.47L293.254 26.552V25.784ZM295.03 28.664H293.878L293.254 28.28V27.512L295.03 28.664ZM286.438 1.256H292.39V29.528H308.374V35H286.438V1.256ZM317.694 1.256H323.646V21.032C323.646 24.264 324.334 26.6 325.71 28.04C327.118 29.448 329.102 30.152 331.662 30.152C334.19 30.152 336.19 29.432 337.662 27.992C339.134 26.552 339.87 24.216 339.87 20.984V1.256H345.822V21.032C345.822 23.56 345.47 25.736 344.766 27.56C344.094 29.384 343.134 30.904 341.886 32.12C340.67 33.304 339.182 34.184 337.422 34.76C335.694 35.336 333.774 35.624 331.662 35.624C329.55 35.624 327.63 35.336 325.902 34.76C324.206 34.184 322.734 33.304 321.486 32.12C320.27 30.904 319.326 29.384 318.654 27.56C318.014 25.736 317.694 23.56 317.694 21.032V1.256ZM349.662 33.032C349.534 33.288 349.422 33.48 349.326 33.608L344.43 30.344C344.526 30.216 344.638 30.024 344.766 29.768L349.662 33.032ZM348.942 34.232C348.878 34.328 348.814 34.424 348.75 34.52C348.686 34.616 348.622 34.696 348.558 34.76L343.614 31.544L343.998 31.016L348.942 34.232ZM345.054 37.64L340.206 34.472C340.366 34.408 340.574 34.28 340.83 34.088L345.678 37.256L345.054 37.64ZM350.958 29.432L346.11 26.264L346.254 25.592L351.102 28.76L350.958 29.432ZM350.046 32.312L345.15 29.048C345.278 28.792 345.358 28.6 345.39 28.472L350.286 31.688L350.046 32.312ZM351.294 27.176C351.294 27.304 351.278 27.432 351.246 27.56C351.246 27.656 351.246 27.768 351.246 27.896L346.398 24.728C346.462 24.408 346.494 24.168 346.494 24.008L351.294 27.176ZM350.766 30.296C350.702 30.392 350.654 30.504 350.622 30.632C350.622 30.728 350.606 30.824 350.574 30.92L345.678 27.704C345.71 27.576 345.742 27.464 345.774 27.368C345.806 27.272 345.838 27.176 345.87 27.08L350.766 30.296ZM347.55 35.816L342.654 32.6L343.134 32.168L348.03 35.384L347.55 35.816ZM346.686 8.6L351.438 11.72V12.488L346.686 9.368V8.6ZM346.686 15.512L351.438 18.632V19.4L346.686 16.28V15.512ZM324.51 11.24L329.262 14.36V15.128L324.51 12.008V11.24ZM324.51 12.968L329.262 16.088V16.856L324.51 13.736V12.968ZM346.686 12.056L351.438 15.176V15.944L346.686 12.824V12.056ZM346.686 13.784L351.438 16.904V17.672L346.686 14.552V13.784ZM346.686 18.968L351.438 22.088V22.856L346.686 19.736V18.968ZM346.686 10.328L351.438 13.448V14.216L346.686 11.096V10.328ZM346.686 17.24L351.438 20.36V21.128L346.686 18.008V17.24ZM346.686 5.144L351.438 8.264V9.032L346.686 5.912V5.144ZM346.686 20.696L351.438 23.816V24.584L346.686 21.464V20.696ZM324.51 18.152L329.262 21.272V22.04L324.51 18.92V18.152ZM324.51 9.512L329.262 12.632V13.4L324.51 10.28V9.512ZM324.51 2.6L329.262 5.72V6.488L324.51 3.368V2.6ZM324.51 19.88L329.262 23V23.768L324.51 20.648V19.88ZM324.51 6.056L329.262 9.176V9.944L324.51 6.824V6.056ZM324.51 14.696L329.262 17.816V18.584L324.51 15.464V14.696ZM346.686 6.872L351.438 9.992V10.76L346.686 7.64V6.872ZM324.51 16.424L329.262 19.544V20.312L324.51 17.192V16.424ZM324.51 7.784L329.262 10.904V11.672L324.51 8.552V7.784ZM346.686 3.416L351.438 6.536V7.304L346.686 4.184V3.416ZM324.51 4.328L329.262 7.448V8.216L324.51 5.096V4.328ZM324.846 24.344C324.782 24.12 324.718 23.816 324.654 23.432L329.31 26.504C329.31 26.664 329.31 26.808 329.31 26.936C329.342 27.064 329.358 27.192 329.358 27.32L324.846 24.344ZM337.806 35.576L342.51 38.648C342.35 38.68 342.206 38.712 342.078 38.744C341.95 38.776 341.806 38.824 341.646 38.888L337.038 35.816L337.806 35.576ZM351.438 25.544C351.438 25.672 351.422 25.8 351.39 25.928C351.39 26.024 351.39 26.136 351.39 26.264L346.59 23.096C346.622 22.936 346.638 22.696 346.638 22.376L351.438 25.544ZM346.398 36.776L341.55 33.608L342.03 33.176L346.926 36.392L346.398 36.776ZM324.558 22.424C324.526 22.264 324.51 22.136 324.51 22.04C324.51 21.912 324.51 21.768 324.51 21.608L329.262 24.776V25.496L324.558 22.424ZM351.438 5.72L346.686 2.6V1.832L351.438 5V5.72ZM343.47 38.312L338.766 35.192L339.438 34.904L344.19 38.024L343.47 38.312ZM340.542 39.08C340.382 39.112 340.206 39.128 340.014 39.128C339.854 39.16 339.694 39.176 339.534 39.176L335.07 36.248L335.934 36.056L340.542 39.08ZM332.766 36.44C332.958 36.44 333.134 36.424 333.294 36.392C333.486 36.392 333.662 36.392 333.822 36.392L338.238 39.32H337.086L332.766 36.44ZM325.854 26.744C325.63 26.424 325.422 26.024 325.23 25.544L329.55 28.376C329.614 28.696 329.678 28.952 329.742 29.144C329.614 29.144 329.518 29.128 329.454 29.096L325.854 26.744ZM335.502 39.224C335.246 39.192 335.006 39.16 334.782 39.128C334.558 39.128 334.318 39.096 334.062 39.032L330.126 36.44C330.318 36.44 330.51 36.44 330.702 36.44C330.926 36.472 331.15 36.488 331.374 36.488L335.502 39.224ZM327.342 36.056L328.398 36.248L331.758 38.456C330.67 38.104 329.726 37.656 328.926 37.112L327.342 36.056ZM359.422 1.256H370.222C372.398 1.256 374.27 1.48 375.838 1.928C377.438 2.344 378.75 2.952 379.774 3.752C380.798 4.52 381.55 5.448 382.03 6.536C382.542 7.624 382.798 8.84 382.798 10.184C382.798 12.008 382.286 13.56 381.262 14.84C380.27 16.12 378.814 17.096 376.894 17.768C379.23 18.44 380.942 19.432 382.03 20.744C383.15 22.056 383.71 23.624 383.71 25.448C383.71 26.952 383.358 28.296 382.654 29.48C381.982 30.664 381.038 31.672 379.822 32.504C378.638 33.304 377.214 33.928 375.55 34.376C373.918 34.792 372.142 35 370.222 35H359.422V1.256ZM365.374 20.168V29.528H370.51C371.758 29.528 372.814 29.4 373.678 29.144C374.542 28.888 375.23 28.552 375.742 28.136C376.286 27.688 376.67 27.192 376.894 26.648C377.15 26.072 377.278 25.464 377.278 24.824C377.278 24.248 377.134 23.688 376.846 23.144C376.558 22.568 376.094 22.056 375.454 21.608C374.814 21.16 373.966 20.808 372.91 20.552C371.886 20.296 370.606 20.168 369.07 20.168H365.374ZM365.374 6.728V15.896H369.646C370.862 15.896 371.902 15.768 372.766 15.512C373.662 15.224 374.382 14.856 374.926 14.408C375.502 13.928 375.918 13.384 376.174 12.776C376.462 12.168 376.606 11.544 376.606 10.904C376.606 9.752 376.126 8.776 375.166 7.976C374.238 7.144 372.686 6.728 370.51 6.728H365.374ZM381.886 15.608L386.686 18.776L386.206 19.256L381.406 16.088L381.886 15.608ZM388.51 32.84L383.614 29.576L383.854 29L388.798 32.216L388.51 32.84ZM389.038 31.448L384.142 28.232C384.206 28.104 384.27 27.88 384.334 27.56L389.182 30.776L389.038 31.448ZM383.47 12.248C383.534 11.928 383.566 11.688 383.566 11.528L388.366 14.696C388.366 14.856 388.334 15.096 388.27 15.416L383.47 12.248ZM382.318 31.448L387.262 34.712L386.782 35.144L381.886 31.928L382.318 31.448ZM383.038 13.688C383.07 13.496 383.15 13.288 383.278 13.064L388.078 16.232C388.046 16.328 388.014 16.44 387.982 16.568C387.982 16.664 387.95 16.76 387.886 16.856L383.038 13.688ZM387.79 34.088L382.846 30.824L383.182 30.296L388.126 33.56L387.79 34.088ZM380.83 16.616L385.582 19.784C385.422 19.944 385.246 20.072 385.054 20.168L380.254 17.048L380.83 16.616ZM382.654 37.592L377.902 34.472L378.622 34.184L383.422 37.304L382.654 37.592ZM366.574 21.032L370.99 23.96V24.728L366.238 21.608V21.032H366.574ZM389.326 29.288C389.326 29.544 389.31 29.736 389.278 29.864L384.478 26.696L384.574 25.976L389.326 29.144V29.288ZM385.63 36.104L380.734 32.888C380.83 32.824 380.926 32.76 381.022 32.696C381.118 32.632 381.198 32.568 381.262 32.504L386.158 35.672L385.63 36.104ZM366.238 8.744L370.99 11.864V12.632L366.238 9.512V8.744ZM366.238 24.296L370.99 27.416V28.184L366.238 25.064V24.296ZM366.238 22.568L370.99 25.688V26.456L366.238 23.336V22.568ZM366.238 10.472L370.99 13.592V14.36L366.238 11.24V10.472ZM384.238 36.92L379.39 33.752C379.518 33.688 379.63 33.64 379.726 33.608C379.822 33.544 379.918 33.48 380.014 33.416L384.862 36.584L384.238 36.92ZM382.702 14.408L387.502 17.576L387.166 18.104L382.366 14.936L382.702 14.408ZM388.366 12.968C388.366 13.096 388.366 13.224 388.366 13.352C388.398 13.48 388.414 13.608 388.414 13.736L383.662 10.616V9.848L388.366 12.968ZM389.038 27.224C389.102 27.448 389.166 27.752 389.23 28.136L384.574 25.064C384.574 24.84 384.542 24.568 384.478 24.248L389.038 27.224ZM370.99 10.904L366.238 7.784V7.592H367.15L371.422 10.424H370.99V10.904ZM377.566 38.648C377.406 38.648 377.23 38.648 377.038 38.648C376.846 38.68 376.654 38.696 376.462 38.696L372.046 35.768C372.206 35.768 372.366 35.752 372.526 35.72C372.718 35.72 372.91 35.704 373.102 35.672L377.566 38.648ZM388.174 11.864L383.566 8.84L383.422 7.976L387.886 10.904L388.174 11.864ZM378.814 38.504L374.254 35.48L375.166 35.336L379.774 38.36L378.814 38.504ZM376.174 35.048C376.494 34.984 376.766 34.92 376.99 34.856L381.694 37.928L380.83 38.12L376.174 35.048ZM368.11 35.864L372.382 38.696H371.182L366.91 35.864H368.11ZM365.47 35.864L369.742 38.696H368.59L364.27 35.864H365.47ZM362.83 35.864L367.15 38.696H365.95L361.678 35.864H362.83ZM369.166 21.032L373.486 23.864H372.286L368.014 21.032H369.166ZM369.742 7.592L374.062 10.424H372.862L368.59 7.592H369.742ZM370.702 35.864L375.022 38.696H373.822L369.55 35.864H370.702ZM376.174 23.912C375.982 23.912 375.774 23.912 375.55 23.912C375.358 23.88 375.15 23.864 374.926 23.864L370.702 21.08C370.958 21.112 371.198 21.144 371.422 21.176C371.678 21.176 371.934 21.208 372.19 21.272L376.174 23.912ZM387.358 24.44C387.838 24.92 388.206 25.4 388.462 25.88L384.286 23.144C384.222 22.984 384.158 22.824 384.094 22.664C384.062 22.472 384.014 22.296 383.95 22.136L387.31 24.392L387.358 24.44ZM369.406 15.032L366.238 12.968V12.2L370.558 15.032C370.398 15.064 370.238 15.08 370.078 15.08C369.95 15.048 369.806 15.032 369.646 15.032H369.406ZM375.502 10.424L371.23 7.64C371.486 7.64 371.742 7.656 371.998 7.688C372.254 7.72 372.494 7.768 372.718 7.832L375.406 9.608C375.566 9.928 375.662 10.2 375.694 10.424H375.502ZM366.238 26.024L370.27 28.664H369.118L366.238 26.792V26.024ZM385.006 7.352C385.87 7.928 386.574 8.632 387.118 9.464L383.086 6.776L382.702 5.864L385.006 7.352ZM382.942 20.504C382.046 19.352 380.782 18.408 379.15 17.672C379.214 17.64 379.262 17.624 379.294 17.624C379.358 17.592 379.422 17.544 379.486 17.48L384.286 20.648C384.19 20.712 384.078 20.776 383.95 20.84C383.854 20.872 383.758 20.92 383.662 20.984L382.942 20.504ZM367.966 15.032H366.766L366.238 14.696V13.928L367.966 15.032ZM367.63 28.664H366.478L366.238 28.52V27.752L367.63 28.664Z" fill="white"/>
</svg>
